<svg xmlns="http://www.w3.org/2000/svg" xmlns:xlink="http://www.w3.org/1999/xlink" class="grid-dashed" shape-rendering="auto" preserveAspectRatio="xMinYMin meet" baseProfile="tiny"  width="1460px" height="500px" viewBox="0.5 0.5 1460 500"><desc>SVG created by ziAPI of Zurich Instruments AG</desc><defs><style type="text/css"><![CDATA[.close-btn *,.eventrect,.legendrow *,.plot-btn *,.receiveevents{cursor:default!important;pointer-events:none!important}text,tspan.explabel{font-family:Arial, Helvetica, sans-serif;font-size:10pt}line,path,polyline,rect.svg-border,rect.svg-innerBg,rect.svg-outerBg,svg,text,tspan{pointer-events:none}.close-btn-bg,.navbtn,.receiveevents,rect.eventrect{pointer-events:all}svg{-webkit-user-select:none;user-select:none;overflow:hidden;display:block}g,line,path,polyline,rect,svg{color-rendering:auto}image{image-rendering:pixelated;image-rendering:crisp-edges;image-rendering:-moz-crisp-edges;-ms-interpolation-mode:nearest-neighbor}text{text-rendering:auto}.wave{buffered-rendering:dynamic;shape-rendering:auto}.fit-wave{stroke-dasharray:5,4}.dragbox,.navbtn,.receiveevents{cursor:pointer}polyline.cursor-line{stroke-dasharray:10px,2px;stroke-width:1px}polyline.cursor-line.dominant{stroke-width:2px}line,path{vector-effect:non-scaling-stroke}line.mgrid,line.zerogrid,path.mgrid,path.zerogrid{stroke-opacity:0.6;stroke-dasharray:0}line.sgrid,path.sgrid{stroke-opacity:0.2;stroke-dasharray:0}.grid-dashed line.mgrid,.grid-dashed line.zerogrid,.grid-dashed path.mgrid,.grid-dashed path.zerogrid{stroke-opacity:0.7;stroke-dasharray:2,2}.grid-dashed line.sgrid,.grid-dashed path.sgrid{stroke-opacity:0.5;stroke-dasharray:1,4}tspan.explabel{font-size:0.7em}text.num-label{font-family:liberation_monoregular, Arial, Helvetica, Sans-Serif;font-weight:normal}text.num-error{font-family:Arial, Helvetica, Sans-Serif}text.num-error-blur{font-family:Arial, Helvetica, Sans-Serif;opacity:0.5}.close-btn-bg{fill:none;stroke:none;cursor:pointer}a,a>text{text-decoration:none;pointer-events:all;cursor:pointer}path.marker-avg,path.marker-minmax{stroke-dasharray:10px,2px}svg{position:relative}li.numplot>div{background-color:#eee}li.numplot>div .canvas-wrapper canvas{background-color:#fff}li.numplot>div .plot-rect{display:none;fill:none;stroke:none}rect.svg-outerBg{fill:none;stroke:none}rect.svg-fade{fill:#fff}.uiblock-bg rect.svg-fade{fill:#eee}rect.svg-border{fill:none;stroke:#000}.eventsonly,rect.eventrect{fill:none;stroke:none}rect.dragbox{stroke:#008aff;stroke-opacity:0.5;fill:#008aff;fill-opacity:0.2}#zoomRect{stroke:#d0d0d0;stroke-opacity:1;fill:#ddd;fill-opacity:0.5}.plothotkeys>.bg,rect.legendrect{fill:#eee;fill-opacity:1;stroke:#eee}.legendrow{cursor:pointer}.legendrow .labelBg{fill:none;stroke:none;pointer-events:fill}.legendrow .arrow-down,.legendrow .arrow-up{fill:#ccc;stroke:#ccc}.legendrow .clamping-both .arrow-down,.legendrow .clamping-both .arrow-up{fill:#000;stroke:#000}.legendrow .clamping-up .arrow-up{fill:#000;stroke:#000}.legendrow .clamping-down .arrow-down{fill:#000;stroke:#000}.legendrow.active{cursor:default}.legendrow.active .labelBg{stroke:#7F7F7F;fill:#7F7F7F;pointer-events:none}.legendrow.active text{fill:#fff}.legendrow path.waveColor0{fill:#0000FF;stroke:#0000FF}.legendrow path.waveColor1{fill:#008000;stroke:#008000}.legendrow path.waveColor2{fill:#ff0000;stroke:#ff0000}.legendrow path.waveColor3{fill:#00bfbf;stroke:#00bfbf}.legendrow path.waveColor4{fill:#bf00bf;stroke:#bf00bf}.legendrow path.waveColor5{fill:#998000;stroke:#998000}.plothotkeys text{fill:#b3b3b3}.plothotkeys.active text{fill:#000}.plothotkeys .toggle .keyboard-icon rect{fill:#000}.plothotkeys .toggle .keyboard-icon rect.border{fill:none;stroke:#000}rect.svg-noInnerBg{fill:none}div.innerBg{background:#fff}rect.svg-ghosted,rect.svg-innerBg{fill:#fff}.ticks-line,polyline.basemarker,polyline.cursor-line{stroke:#000;fill:none}line.mticks,path.mticks{stroke:#000}line.sticks,path.sticks{stroke:#000}line.mgrid,path.mgrid{stroke:#8a8a8a}line.sgrid,path.sgrid{stroke:#8a8a8a}text{fill:#000}.close-btn{}.close-btn>path{stroke:#000;stroke-width:0.5px}.close-btn>.close-btn-bg{fill:none}.close-btn>.close-btn-bg:hover{fill:#ddd}.close-btn>.close-btn-bg:hover:active{fill:#FFB2B2}.plot-disabled{fill:#fff;fill-opacity:0.7}path.multi-arrow{stroke:#fff;fill:#fff}.navbtn{fill:#009ee0;stroke:#009ee0}.navbtn:hover{stroke:#172983}.navbtn:hover:active{fill:#172983;stroke:#009ee0}.navbtn[data-zichecked=true]{fill:#172983;stroke:#172983}.navbtn[readonly]{fill:#009ee0!important;stroke:#009ee0!important;cursor:default!important}.savebtn-cont>foreignObject.navbtn-dragoutcont>img{border-color:#009ee0;background-color:#009ee0}.savebtn-cont>foreignObject.navbtn-dragoutcont>img:hover{border-color:#172983}.savebtn-cont>foreignObject.navbtn-dragoutcont>img:active{background-color:#172983;border-color:#009ee0}.label-bg{fill:#fff;stroke-width:1;stroke:#fff;opacity:0.8}path.marker-tracking{stroke:#000;fill:none}path.marker-minmax{stroke:#888}path.marker-avg{stroke:#888}path.marker-std{fill:#888;fill-opacity:0.3}path.marker-peak{stroke:#000;fill:#000}.hl-region:hover~.hl-object{stroke:#008aff;opacity:0.7}.hl-region:active~.hl-object{stroke:#008aff;opacity:1}.hl-bar{fill:#888;fill-opacity:0.25;stroke:none}.hl-bar-light{fill:#888;fill-opacity:0.15;stroke:none}.hl-object{opacity:0.3;stroke-width:2;stroke:#000}rect.colorbar-frame{fill:none;stroke:#000}.plot-btn .plot-btn-bg{pointer-events:all;cursor:pointer;fill:#009ee0;stroke:#009ee0}.plot-btn .plot-btn-bg:hover{stroke:#172983}.plot-btn .plot-btn-bg:hover:active{fill:#172983;stroke:#009ee0}.plot-btn .plot-btn-bg[data-zichecked=true]{fill:#172983;stroke:#172983}.plot-btn .plot-btn-bg[readonly]{fill:#009ee0!important;stroke:#009ee0!important;cursor:default!important}.plot-btn circle,.plot-btn line,.plot-btn path,.plot-btn polyline,.plot-btn rect{fill:none;stroke:#fff;stroke-width:2}.plot-btn .fill-only{stroke:none;fill:#fff}.plot-btn text{fill:#fff;font-size:9px}a,a>text{fill:#009ee0}a:hover,a>text:hover{fill:#172983}a:active,a>text:active{fill:#009ee0}]]></style></defs><rect class="svg-innerBg" x="0" y="0" width="1460" height="500" /><g id="c0p1t10p1cfm0p0" transform="translate(0,40)"><rect class="plot-rect svg-border" x="104" y="32" width="1051" height="393" />
<g id="c0p1t10p1cfm0p0clipg"><clipPath id="c0p1t10p1cfm0p0clip">
<rect x="104" y="32" width="1051" height="393" /></clipPath>
<g clip-path="url(#c0p1t10p1cfm0p0clip)"><g id="c0p1t10p1cfm0p0w2"><g id="c0p1t10p1cfm0p0w2g"><path class="wave" style="stroke: #0000ff; stroke-opacity: 1; stroke-width: 1pt;" fill="none" d=" M273 203 L283 204 L294 205 L305 205 L315 206 L326 208 L337 209 L347 210 L358 212 L368 215 L379 217 L390 219 L400 222 L411 226 L421 229 L432 233 L443 237 L453 242 L464 247 L475 252 L485 257 L496 263 L506 270 L517 276 L528 283 L538 289 L549 296 L559 303 L570 310 L581 317 L591 324 L602 330 L613 336 L623 342 L634 348 L644 353 L655 358 L666 363 L676 367 L687 370 L698 374 L708 377 L719 380 L729 382 L740 384 L751 386 L761 388 L772 390 L782 392 L793 393 L804 394 L814 395 L825 396 L836 397 L846 399 L857 399 L867 400 L878 401 L889 401 L899 402 L910 402 L920 402 L931 403 L942 402 L952 402 L963 401 L974 400 L984 399 L995 397 L1005 394 L1016 391 L1027 386 L1037 381 L1048 375 L1058 367 L1069 356 L1080 342 L1090 324 L1101 303 L1112 276 L1122 242 L1133 196 L1143 131 L1154 56" /><path class="wave" style="stroke: #808080; stroke-opacity: 0.5; stroke-width: 1pt;" fill="none" d=" M103 247 L114 241 L124 235 L135 232 L145 225 L156 220 L167 216 L177 213 L188 212 L199 208 L209 208 L220 206 L230 205 L241 204 L252 203 L262 203 L273 203" /><text x="103" y="247" class="num-error-blur" text-anchor="begin" style="fill:#0000ff">Current Overflow</text>
<text x="209" y="208" class="num-error-blur" text-anchor="begin" style="fill:#0000ff">Current Overflow</text>
<path class="wave" style="stroke: #ff3300; stroke-opacity: 1; stroke-width: 1pt;" fill="none" d=" M273 207 L283 207 L294 208 L305 208 L315 209 L326 210 L337 210 L347 206 L358 205 L368 203 L379 203 L390 204 L400 207 L411 210 L421 214 L432 219 L443 222 L453 226 L464 230 L475 234 L485 239 L496 244 L506 249 L517 256 L528 264 L538 275 L549 286 L559 298 L570 309 L581 320 L591 328 L602 336 L613 344 L623 351 L634 357 L644 363 L655 368 L666 372 L676 361 L687 365 L698 369 L708 372 L719 374 L729 376 L740 379 L751 381 L761 385 L772 390 L782 397 L793 400 L804 403 L814 407 L825 408 L836 411 L846 412 L857 414 L867 415 L878 416 L889 417 L899 417 L910 417 L920 417 L931 417 L942 416 L952 415 L963 416 L974 414 L984 412 L995 410 L1005 406 L1016 402 L1027 398 L1037 394 L1048 389 L1058 380 L1069 368 L1080 352 L1090 331 L1101 308 L1112 280 L1122 247 L1133 201 L1143 136 L1154 63" /><path class="wave" style="stroke: #808080; stroke-opacity: 0.5; stroke-width: 1pt;" fill="none" d=" M103 222 L114 218 L124 217 L135 219 L145 220 L156 220 L167 218 L177 216 L188 216 L199 216 L209 214 L220 212 L230 210 L241 210 L252 209 L262 208 L273 207" /><text x="103" y="222" class="num-error-blur" text-anchor="begin" style="fill:#ff3300">Open Detected</text>
<text x="209" y="214" class="num-error-blur" text-anchor="begin" style="fill:#ff3300">Open Detected</text>
<path class="wave" style="stroke: #00ffff; stroke-opacity: 1; stroke-width: 1pt;" fill="none" d=" M273 202 L283 202 L294 203 L305 204 L315 205 L326 206 L337 208 L347 209 L358 211 L368 213 L379 216 L390 218 L400 221 L411 224 L421 228 L432 232 L443 236 L453 241 L464 246 L475 251 L485 257 L496 262 L506 267 L517 272 L528 279 L538 285 L549 292 L559 300 L570 307 L581 313 L591 320 L602 327 L613 325 L623 334 L634 348 L644 358 L655 367 L666 375 L676 380 L687 385 L698 389 L708 393 L719 396 L729 400 L740 402 L751 404 L761 406 L772 406 L782 407 L793 407 L804 408 L814 408 L825 408 L836 409 L846 409 L857 409 L867 409 L878 409 L889 409 L899 409 L910 409 L920 409 L931 408 L942 408 L952 407 L963 406 L974 403 L984 402 L995 400 L1005 397 L1016 393 L1027 389 L1037 382 L1048 376 L1058 367 L1069 355 L1080 340 L1090 322 L1101 299 L1112 271 L1122 236 L1133 184 L1143 118 L1154 44" /><path class="wave" style="stroke: #808080; stroke-opacity: 0.5; stroke-width: 1pt;" fill="none" d=" M103 251 L114 241 L124 236 L135 231 L145 225 L156 220 L167 217 L177 213 L188 211 L199 208 L209 206 L220 206 L230 203 L241 204 L252 202 L262 202 L273 202" /><text x="103" y="251" class="num-error-blur" text-anchor="begin" style="fill:#00ffff">Open Detected</text>
<text x="209" y="206" class="num-error-blur" text-anchor="begin" style="fill:#00ffff">Open Detected</text>
<path stroke="#0000ff" stroke-width="1pt" fill="none" d="M 1154 44 m 0 -4 l 4 4 l -4 4 l -4 -4 z" />
</g></g><g id="c0p1t10p1cfm0p0g21"><g id="c0p1t10p1cfm0p0g21g"></g></g><g id="c0p1t10p1cfm0p0pang"><rect class="eventrect svg-zoom" id="c0p1t10p1cfm0p0panaxis" x="104" y="32" width="1051" height="393"  data-eventhandler="c0p1t10p1cfm0p0" data-panhandler=",!global,c0p1t10p1cfm0p0c0xhx,c0p1t10p1cfm0p0c0xx,c0p1t10p1cfm0p0c0yhy,c0p1t10p1cfm0p0c0yy,c0p1t10p1cfm0p0c1xhx,c0p1t10p1cfm0p0c1xx,c0p1t10p1cfm0p0c1yhy,c0p1t10p1cfm0p0c1yy,c0p1t10p1cfm0p0g21,c0p1t10p1cfm0p0g21c0,c0p1t10p1cfm0p0g21c1,c0p1t10p1cfm0p0ha0gridx,c0p1t10p1cfm0p0ha0labelx,c0p1t10p1cfm0p0ha0ticksx,c0p1t10p1cfm0p0va0gridy,c0p1t10p1cfm0p0va0labely,c0p1t10p1cfm0p0va0ticksy,c0p1t10p1cfm0p0w2" onmousedown="svgEvent(evt)" onmousemove="svgEvent(evt)" onmouseup="svgEvent(evt)" onmouseout="svgEvent(evt)" ontouchstart="svgEvent(evt)" ontouchmove="svgEvent(evt)" ontouchend="svgEvent(evt)" ongesturestart="svgEvent(evt)" ongesturechange="svgEvent(evt)" ongestureend="svgEvent(evt)" />
</g><g id="c0p1t10p1cfm0p0s0g"><g class="plothotkeys" transform="translate(1133,32)"></g></g><g id="c0p1t10p1cfm0p0c0yg"><g id="c0p1t10p1cfm0p0c0yhx"><g id="c0p1t10p1cfm0p0c0yhy"><rect class="dragbox" id="c0p1t10p1cfm0p0c0yhbox" x="169" y="415" width="20" height="20" />
<rect class="receiveevents eventsonly svg-zoom livepan" id="c0p1t10p1cfm0p0c0yh" x="164" y="410" width="31" height="31" data-eventhandler="c0p1t10p1cfm0p0" data-panhandler="c0p1t10p1cfm0p0c0yhx,c0p1t10p1cfm0p0c0yhy,c0p1t10p1cfm0p0c0yy" onmousedown="svgEvent(evt)" onmousemove="svgEvent(evt)" onmouseup="svgEvent(evt)" onmouseout="svgEvent(evt)" ontouchstart="svgEvent(evt)" ontouchmove="svgEvent(evt)" ontouchend="svgEvent(evt)" ongesturestart="svgEvent(evt)" ongesturechange="svgEvent(evt)" ongestureend="svgEvent(evt)" />
<rect class="svg-innerBg label-bg" x="197" y="406" width="104" height="18" />
<text class="label" id="c0p1t10p1cfm0p0c0yht0" x="200" y="420" text-anchor="start" font-size="10pt">Y1:&#8201;1000&#8201;aOhm</text>
</g></g></g><g id="c0p1t10p1cfm0p0c0xg"><g id="c0p1t10p1cfm0p0c0xhx"><g id="c0p1t10p1cfm0p0c0xhy"><rect class="dragbox" id="c0p1t10p1cfm0p0c0xvbox" x="94" y="97" width="20" height="20" />
<rect class="receiveevents eventsonly svg-zoom livepan" id="c0p1t10p1cfm0p0c0xv" x="89" y="92" width="31" height="31" data-eventhandler="c0p1t10p1cfm0p0" data-panhandler="c0p1t10p1cfm0p0c0xhx,c0p1t10p1cfm0p0c0xhy,c0p1t10p1cfm0p0c0xx" onmousedown="svgEvent(evt)" onmousemove="svgEvent(evt)" onmouseup="svgEvent(evt)" onmouseout="svgEvent(evt)" ontouchstart="svgEvent(evt)" ontouchmove="svgEvent(evt)" ontouchend="svgEvent(evt)" ongesturestart="svgEvent(evt)" ongesturechange="svgEvent(evt)" ongestureend="svgEvent(evt)" />
<rect class="svg-innerBg label-bg" x="121" y="92" width="136" height="18" />
      <text class="label" id="c0p1t10p1cfm0p0c0xvt0" x="124" y="106" text-anchor="start" font-size="10pt">X1:&#8201;1000.0000&#8201;aHz</text>
</g></g></g><g id="c0p1t10p1cfm0p0c1yg"><g id="c0p1t10p1cfm0p0c1yhx"><g id="c0p1t10p1cfm0p0c1yhy"><rect class="dragbox" id="c0p1t10p1cfm0p0c1yhbox" x="169" y="415" width="20" height="20" />
<rect class="receiveevents eventsonly svg-zoom livepan" id="c0p1t10p1cfm0p0c1yh" x="164" y="410" width="31" height="31" data-eventhandler="c0p1t10p1cfm0p0" data-panhandler="c0p1t10p1cfm0p0c1yhx,c0p1t10p1cfm0p0c1yhy,c0p1t10p1cfm0p0c1yy" onmousedown="svgEvent(evt)" onmousemove="svgEvent(evt)" onmouseup="svgEvent(evt)" onmouseout="svgEvent(evt)" ontouchstart="svgEvent(evt)" ontouchmove="svgEvent(evt)" ontouchend="svgEvent(evt)" ongesturestart="svgEvent(evt)" ongesturechange="svgEvent(evt)" ongestureend="svgEvent(evt)" />
<rect class="svg-innerBg label-bg" x="197" y="388" width="104" height="36" />
<text class="label" id="c0p1t10p1cfm0p0c1yht0" x="200" y="402" text-anchor="start" font-size="10pt">Y2:&#8201;1000&#8201;aOhm</text>
<text class="label" id="c0p1t10p1cfm0p0c1yht1" x="200" y="420" text-anchor="start" font-size="10pt">&#916;&#8201;=&#8201;0&#8201;Ohm</text>
</g></g></g><g id="c0p1t10p1cfm0p0c1xg"><g id="c0p1t10p1cfm0p0c1xhx"><g id="c0p1t10p1cfm0p0c1xhy"><rect class="dragbox" id="c0p1t10p1cfm0p0c1xvbox" x="94" y="97" width="20" height="20" />
<rect class="receiveevents eventsonly svg-zoom livepan" id="c0p1t10p1cfm0p0c1xv" x="89" y="92" width="31" height="31" data-eventhandler="c0p1t10p1cfm0p0" data-panhandler="c0p1t10p1cfm0p0c1xhx,c0p1t10p1cfm0p0c1xhy,c0p1t10p1cfm0p0c1xx" onmousedown="svgEvent(evt)" onmousemove="svgEvent(evt)" onmouseup="svgEvent(evt)" onmouseout="svgEvent(evt)" ontouchstart="svgEvent(evt)" ontouchmove="svgEvent(evt)" ontouchend="svgEvent(evt)" ongesturestart="svgEvent(evt)" ongesturechange="svgEvent(evt)" ongestureend="svgEvent(evt)" />
<rect class="svg-innerBg label-bg" x="121" y="92" width="136" height="36" />
      <text class="label" id="c0p1t10p1cfm0p0c1xvt0" x="124" y="106" text-anchor="start" font-size="10pt">X2:&#8201;1000.0000&#8201;aHz</text>
      <text class="label" id="c0p1t10p1cfm0p0c1xvt1" x="124" y="124" text-anchor="start" font-size="10pt">&#916;&#8201;=&#8201;0.0000&#8201;aHz</text>
</g></g></g></g></g><g id="c0p1t10p1cfm0p0ha0g"><g id="c0p1t10p1cfm0p0ha0clippedg"><g clip-path="url(#c0p1t10p1cfm0p0ha0clip)"><g id="c0p1t10p1cfm0p0ha0gridxg"><g id="c0p1t10p1cfm0p0ha0gridx"><line class="sgrid" x1="188" y1="32" x2="188" y2="425" /><line class="sgrid" x1="238" y1="32" x2="238" y2="425" /><line class="sgrid" x1="274" y1="32" x2="274" y2="425" /><line class="sgrid" x1="301" y1="32" x2="301" y2="425" /><line class="sgrid" x1="324" y1="32" x2="324" y2="425" /><line class="sgrid" x1="343" y1="32" x2="343" y2="425" /><line class="sgrid" x1="359" y1="32" x2="359" y2="425" /><line class="sgrid" x1="373" y1="32" x2="373" y2="425" /><line class="sgrid" x1="472" y1="32" x2="472" y2="425" /><line class="sgrid" x1="522" y1="32" x2="522" y2="425" /><line class="sgrid" x1="557" y1="32" x2="557" y2="425" /><line class="sgrid" x1="585" y1="32" x2="585" y2="425" /><line class="sgrid" x1="607" y1="32" x2="607" y2="425" /><line class="sgrid" x1="626" y1="32" x2="626" y2="425" /><line class="sgrid" x1="642" y1="32" x2="642" y2="425" /><line class="sgrid" x1="657" y1="32" x2="657" y2="425" /><line class="sgrid" x1="755" y1="32" x2="755" y2="425" /><line class="sgrid" x1="805" y1="32" x2="805" y2="425" /><line class="sgrid" x1="841" y1="32" x2="841" y2="425" /><line class="sgrid" x1="868" y1="32" x2="868" y2="425" /><line class="sgrid" x1="891" y1="32" x2="891" y2="425" /><line class="sgrid" x1="910" y1="32" x2="910" y2="425" /><line class="sgrid" x1="926" y1="32" x2="926" y2="425" /><line class="sgrid" x1="940" y1="32" x2="940" y2="425" /><line class="sgrid" x1="1039" y1="32" x2="1039" y2="425" /><line class="sgrid" x1="1089" y1="32" x2="1089" y2="425" /><line class="sgrid" x1="1124" y1="32" x2="1124" y2="425" /><line class="mgrid" x1="386" y1="32" x2="386" y2="425" /><line class="mgrid" x1="670" y1="32" x2="670" y2="425" /><line class="mgrid" x1="953" y1="32" x2="953" y2="425" /><path class="mgrid" d=" M103,32 L103,425" />
</g></g><g id="c0p1t10p1cfm0p0ha0ticksxg"><g id="c0p1t10p1cfm0p0ha0ticksx"><path class="sticks" d="M188,421L188,425M238,421L238,425M274,421L274,425M301,421L301,425M324,421L324,425M343,421L343,425M359,421L359,425M373,421L373,425M472,421L472,425M522,421L522,425M557,421L557,425M585,421L585,425M607,421L607,425M626,421L626,425M642,421L642,425M657,421L657,425M755,421L755,425M805,421L805,425M841,421L841,425M868,421L868,425M891,421L891,425M910,421L910,425M926,421L926,425M940,421L940,425M1039,421L1039,425M1089,421L1089,425M1124,421L1124,425" />
<path class="mticks" d="M386,418L386,425M670,418L670,425M953,418L953,425" />
</g></g><g id="c0p1t10p1cfm0p0ha0labelxg"><g id="c0p1t10p1cfm0p0ha0labelx" text-anchor="middle"><text  x="386" y="444" >10<tspan class="explabel" dy="-7pt">4</tspan></text>
<text  x="670" y="444" >10<tspan class="explabel" dy="-7pt">5</tspan></text>
<text  x="953" y="444" >10<tspan class="explabel" dy="-7pt">6</tspan></text>
</g></g><g id="c0p1t10p1cfm0p0ha0fadexg"><rect class="svg-fade" x="104" y="427" width="10" height="23" fill-opacity="0.5" />
<rect class="svg-fade" x="104" y="427" width="5" height="23" fill-opacity="0.7" />
<rect class="svg-fade" x="1145" y="427" width="10" height="23" fill-opacity="0.5" />
<rect class="svg-fade" x="1150" y="427" width="5" height="23" fill-opacity="0.7" />
</g></g></g><g id="c0p1t10p1cfm0p0ha0clipg"><clipPath id="c0p1t10p1cfm0p0ha0clip">
<rect x="104" y="0" width="1051" height="479" /></clipPath>
</g><g id="c0p1t10p1cfm0p0ha0outlinexg"></g><g id="c0p1t10p1cfm0p0ha0gpanxg"></g><g id="c0p1t10p1cfm0p0ha0mainlabelxg"><text x="1155" y="457" transform="rotate(0,1155,457)" text-anchor="end" >Frequency &#40;Hz&#41;</text>
</g></g><g id="c0p1t10p1cfm0p0va0g"><g id="c0p1t10p1cfm0p0va0clippedg"><g clip-path="url(#c0p1t10p1cfm0p0va0clip)"><g id="c0p1t10p1cfm0p0va0gridyg"><g id="c0p1t10p1cfm0p0va0gridy"><line class="mgrid" x1="104" y1="378" x2="1155" y2="378" /><line class="mgrid" x1="104" y1="305" x2="1155" y2="305" /><line class="mgrid" x1="104" y1="232" x2="1155" y2="232" /><line class="mgrid" x1="104" y1="160" x2="1155" y2="160" /><line class="mgrid" x1="104" y1="87" x2="1155" y2="87" /></g></g><g id="c0p1t10p1cfm0p0va0ticksyg"><g id="c0p1t10p1cfm0p0va0ticksy"><path class="sticks" d="M104,422L108,422M104,414L108,414M104,407L108,407M104,400L108,400M104,392L108,392M104,385L108,385M104,371L108,371M104,363L108,363M104,356L108,356M104,349L108,349M104,342L108,342M104,334L108,334M104,327L108,327M104,320L108,320M104,312L108,312M104,298L108,298M104,291L108,291M104,283L108,283M104,276L108,276M104,269L108,269M104,262L108,262M104,254L108,254M104,247L108,247M104,240L108,240M104,225L108,225M104,218L108,218M104,211L108,211M104,203L108,203M104,196L108,196M104,189L108,189M104,182L108,182M104,174L108,174M104,167L108,167M104,152L108,152M104,145L108,145M104,138L108,138M104,131L108,131M104,123L108,123M104,116L108,116M104,109L108,109M104,101L108,101M104,94L108,94M104,80L108,80M104,72L108,72M104,65L108,65M104,58L108,58M104,51L108,51M104,43L108,43M104,36L108,36" />
<path class="mticks" d="M104,378L111,378M104,305L111,305M104,232L111,232M104,160L111,160M104,87L111,87" />
</g></g><g id="c0p1t10p1cfm0p0va0labelyg"><g id="c0p1t10p1cfm0p0va0labely" text-anchor="end"><text x="99" y="382" >15</text>
<text x="99" y="309" >20</text>
<text x="99" y="236" >25</text>
<text x="99" y="164" >30</text>
<text x="99" y="91" >35</text>
</g></g><g id="c0p1t10p1cfm0p0va0fadeyg"><rect class="svg-fade" x="0" y="32" width="102" height="10" fill-opacity="0.5" />
<rect class="svg-fade" x="0" y="32" width="102" height="5" fill-opacity="0.7" />
<rect class="svg-fade" x="0" y="415" width="102" height="10" fill-opacity="0.5" />
<rect class="svg-fade" x="0" y="420" width="102" height="5" fill-opacity="0.7" />
</g></g></g><g id="c0p1t10p1cfm0p0va0clipg"><clipPath id="c0p1t10p1cfm0p0va0clip">
<rect x="0" y="32" width="1159" height="393" /></clipPath>
</g><g id="c0p1t10p1cfm0p0va0mainlabelyg"><text x="48" y="32" transform="rotate(-90,48,32)" text-anchor="end" >Impedance &#40;Ohm&#41;</text>
</g></g><g id="c0p1t10p1cfm0p0l0g"><g clip-path="url(#c0p1t10p1cfm0p0clip)"><g transform="translate(180,40)"><g id="c0p1t10p1cfm0p0l0pan"></g></g></g></g></g><g class="plot-legend"><g transform="translate(1166, 72)"><clipPath id="histcliprect"><rect x="0" y="0" width="282" height="385" /></clipPath>
<g clip-path="url(#histcliprect)" transform="translate(6, 3)"><text x="23" y="19">029 15:11:04.1802</text><rect x="1" y="7" width="13" height="13" style="fill:#00ffff; stroke:#000000"></rect><line x1="25" x2="51" y1="31" y2="31" style="stroke:#00ffff;stroke-width:3;"></line><text x="59" y="35">Impedance 1 Sample Abs(Z)</text><text x="23" y="57">028 15:10:29.2024</text><rect x="1" y="45" width="13" height="13" style="fill:#ff3300; stroke:#000000"></rect><text x="23" y="79">027 15:10:01.6380</text><rect x="1" y="67" width="13" height="13" style="fill:#0000ff; stroke:#000000"></rect></g><rect class="svg-border" x="0" y="0" width="269" height="393" />
<rect class="svg-innerBg" style="fill-opacity:0.3" x="2" y="368" width="265" height="5" />
<rect class="svg-innerBg" style="fill-opacity:0.4" x="2" y="373" width="265" height="5" />
<rect class="svg-innerBg" style="fill-opacity:0.5" x="2" y="378" width="265" height="5" />
<rect class="svg-innerBg" style="fill-opacity:0.6" x="2" y="383" width="265" height="5" />
</g><g><g transform="translate(38, 14)"><svg width="45" height="45" xmlns="http://www.w3.org/2000/svg" xmlns:svg="http://www.w3.org/2000/svg" version="1.1">

  <g class="plot-btn">
    <rect x="0" y="0" width="45" height="45" class="plot-btn-bg" />
    <g transform="translate(0, -5) scale(0.75)">
      <line x1="22" y1="42" x2="58" y2="42"/><path class="fill-only" d="M60 42 l-8,-4 0,8 Z"/><line x1="6" y1="47" x2="42" y2="47"/><path class="fill-only" d="M4 47 l8,-4 0,8 Z"/><path style="stroke-width:3;" d="M5,22 h22 c6,0,4,12,10,12 c10,0,6,0,22,0"/>
    </g>
    <text x="2" y="43">Sweeper</text>
  </g>
  
</svg></g><a xlink:href="https://www.zhinst.com/" target="_blank"><text xml:space="preserve" fill="rgb(0, 158, 224)" x="104" y="36">Zurich Instruments AG</text></a><a xlink:href="https://www.zhinst.com/labone" target="_blank"><text xml:space="preserve" fill="rgb(0, 158, 224)" x="244" y="36">LabOne<tspan dy="-3">&#174;</tspan></text></a><text xml:space="preserve" x="316" y="36">Version: 18.05.54618</text><text xml:space="preserve" x="104" y="55">Device:  MFLI  DEV4146</text><text xml:space="preserve" x="316" y="55">Settings: default_ui</text><g transform="translate(992, 14)"><svg version="1.1" id="Layer_1" xmlns="http://www.w3.org/2000/svg" xmlns:xlink="http://www.w3.org/1999/xlink" x="0px" y="0px"
	 width="160.71px" height="45px" viewBox="0 0 283.464 79.37">
<g>
	<g>
		<g>
			<path fill="#009FE3" d="M113.678,35.484H94.686v-2.061l16.6-22.23H94.943V9.39h18.55v2.061L96.857,33.68h16.82V35.484z"/>
			<path fill="#009FE3" d="M131.387,35.447h-1.619l-0.221-3.349c-0.516,1.153-1.35,2.079-2.503,2.778s-2.392,1.049-3.717,1.049
				c-2.086,0-3.687-0.601-4.803-1.803c-1.117-1.202-1.675-2.847-1.675-4.932V17.045h1.84v12.035c0,3.361,1.583,5.042,4.748,5.042
				c2.11,0,3.655-0.755,4.638-2.264c0.98-1.509,1.472-3.38,1.472-5.613v-9.2h1.84V35.447z"/>
			<path fill="#009FE3" d="M146.307,18.849c-0.491-0.123-1.092-0.184-1.804-0.184c-1.104,0-2.055,0.228-2.852,0.681
				c-0.798,0.454-1.405,1.08-1.822,1.877c-0.417,0.797-0.718,1.644-0.901,2.54c-0.184,0.896-0.276,1.858-0.276,2.889v8.833h-1.84
				V17.082h1.619l0.221,3.717c0.393-1.227,1.129-2.184,2.208-2.871c1.08-0.687,2.294-1.03,3.644-1.03
				c0.811,0,1.411,0.037,1.804,0.11V18.849z"/>
			<path fill="#009FE3" d="M151.974,11.966h-2.576V9.39h2.576V11.966z M151.68,35.484h-1.951V17.082h1.951V35.484z"/>
			<path fill="#009FE3" d="M171.097,29.669c-0.245,1.815-1.03,3.318-2.355,4.508c-1.324,1.19-2.932,1.785-4.821,1.785
				c-2.159,0-3.962-0.724-5.409-2.172c-1.719-1.717-2.578-4.22-2.578-7.508c0-3.287,0.859-5.79,2.578-7.507
				c1.447-1.448,3.25-2.171,5.409-2.171c1.914,0,3.521,0.57,4.821,1.711c1.301,1.141,2.062,2.644,2.282,4.509h-1.914
				c-0.196-1.3-0.767-2.361-1.711-3.184c-0.945-0.822-2.104-1.233-3.479-1.233c-1.717,0-3.079,0.528-4.085,1.583
				c-1.35,1.398-2.025,3.496-2.025,6.293c0,2.822,0.676,4.932,2.025,6.33c0.981,1.031,2.343,1.546,4.085,1.546
				c1.374,0,2.533-0.423,3.479-1.27c0.944-0.847,1.527-1.919,1.748-3.22H171.097z"/>
			<path fill="#009FE3" d="M189.535,35.484h-1.84V23.449c0-3.41-1.583-5.116-4.748-5.116c-1.423,0-2.612,0.399-3.569,1.196
				s-1.62,1.767-1.987,2.907c-0.368,1.141-0.553,2.423-0.553,3.846v9.201h-1.84V8.912h1.84v11.557
				c0.516-1.153,1.355-2.085,2.521-2.797c1.165-0.711,2.397-1.067,3.698-1.067c2.086,0,3.687,0.601,4.803,1.803
				s1.675,2.846,1.675,4.932V35.484z"/>
			<path fill="#009FE3" d="M98.771,73.083H96.82V46.989h1.951V73.083z"/>
			<path fill="#009FE3" d="M118.966,73.083h-1.84V61.048c0-3.36-1.583-5.042-4.748-5.042c-2.11,0-3.657,0.755-4.638,2.264
				c-0.981,1.509-1.473,3.38-1.473,5.612v9.201h-1.84V54.682h1.619l0.221,3.349c0.516-1.152,1.355-2.079,2.521-2.778
				s2.398-1.049,3.699-1.049c2.086,0,3.687,0.602,4.803,1.803c1.116,1.203,1.675,2.847,1.675,4.932V73.083z"/>
			<path fill="#009FE3" d="M137.522,67.968c0,1.301-0.417,2.429-1.251,3.386c-1.325,1.472-3.313,2.208-5.962,2.208
				c-2.626,0-4.638-0.785-6.036-2.355c-0.957-1.104-1.473-2.343-1.546-3.717h1.877c0.098,1.08,0.552,2.023,1.361,2.834
				c1.006,0.981,2.454,1.472,4.344,1.472c1.987,0,3.435-0.454,4.343-1.361c0.662-0.663,0.993-1.448,0.993-2.355
				c0-0.859-0.294-1.595-0.883-2.209c-0.589-0.612-1.424-0.993-2.503-1.141l-3.57-0.479c-1.913-0.221-3.3-0.834-4.158-1.84
				c-0.688-0.81-1.031-1.778-1.031-2.907c0-1.398,0.527-2.589,1.583-3.57c1.251-1.153,2.932-1.729,5.042-1.729
				c2.478,0,4.33,0.724,5.558,2.171c0.883,1.056,1.349,2.185,1.398,3.386h-1.84c-0.099-0.883-0.405-1.619-0.921-2.208
				c-0.907-1.079-2.307-1.619-4.195-1.619c-1.423,0-2.527,0.282-3.313,0.847c-0.957,0.688-1.435,1.533-1.435,2.539
				c0,0.835,0.263,1.516,0.791,2.043c0.527,0.527,1.453,0.877,2.778,1.049l3.496,0.479c1.644,0.221,2.901,0.815,3.772,1.785
				C137.087,65.643,137.522,66.742,137.522,67.968z"/>
			<path fill="#009FE3" d="M150.815,72.9c-1.375,0.294-2.393,0.441-3.055,0.441c-3.165,0-4.748-1.791-4.748-5.373V56.375h-3.681
				v-1.692h3.681v-5.08l1.84-0.441v5.521h5.705v1.692h-5.705v11.52c0,1.202,0.222,2.123,0.663,2.761s1.238,0.957,2.392,0.957
				c0.736,0,1.705-0.111,2.908-0.332V72.9z"/>
			<path fill="#009FE3" d="M163.822,56.449c-0.491-0.123-1.092-0.185-1.804-0.185c-1.104,0-2.055,0.228-2.852,0.681
				c-0.798,0.455-1.406,1.08-1.823,1.877c-0.417,0.798-0.718,1.645-0.901,2.54s-0.276,1.858-0.276,2.889v8.833h-1.84V54.682h1.619
				l0.221,3.717c0.393-1.227,1.129-2.184,2.209-2.871c1.08-0.687,2.294-1.03,3.644-1.03c0.811,0,1.411,0.037,1.804,0.11V56.449z"/>
			<path fill="#009FE3" d="M181.521,73.046h-1.619l-0.221-3.349c-0.516,1.153-1.35,2.079-2.503,2.778s-2.392,1.049-3.717,1.049
				c-2.086,0-3.687-0.601-4.803-1.803c-1.117-1.202-1.675-2.847-1.675-4.932V54.645h1.84V66.68c0,3.361,1.583,5.042,4.748,5.042
				c2.11,0,3.655-0.755,4.638-2.264c0.98-1.509,1.472-3.38,1.472-5.612v-9.201h1.84V73.046z"/>
			<path fill="#009FE3" d="M212.23,73.083h-1.841V61.048c0-3.409-1.46-5.115-4.38-5.115c-1.276,0-2.368,0.418-3.275,1.251
				c-1.448,1.375-2.172,3.202-2.172,5.484v10.415h-1.877V61.048c0-3.409-1.472-5.115-4.416-5.115c-1.301,0-2.393,0.418-3.276,1.251
				c-1.472,1.375-2.208,3.607-2.208,6.698v9.201h-1.84V54.682h1.619l0.221,3.165c0.491-1.104,1.227-1.987,2.208-2.65
				c0.981-0.662,2.11-0.993,3.387-0.993c3.066,0,5.005,1.324,5.814,3.975c0.516-1.202,1.27-2.165,2.264-2.889
				c0.993-0.724,2.214-1.086,3.662-1.086c2.062,0,3.595,0.607,4.602,1.821c1.005,1.215,1.509,2.853,1.509,4.913V73.083z"/>
			<path fill="#009FE3" d="M232.145,63.11c0,0.147-0.007,0.35-0.019,0.607c-0.013,0.258-0.019,0.46-0.019,0.607h-14.059
				c0.049,2.208,0.687,4.048,1.913,5.521c1.104,1.301,2.589,1.95,4.454,1.95c1.644,0,2.98-0.539,4.011-1.619
				c0.736-0.785,1.202-1.656,1.398-2.613h1.914c-0.245,1.472-0.933,2.761-2.061,3.864c-1.424,1.424-3.178,2.135-5.263,2.135
				c-2.381,0-4.331-0.871-5.853-2.613c-1.57-1.84-2.355-4.171-2.355-6.992c0-2.724,0.602-4.907,1.804-6.551
				c1.57-2.135,3.655-3.202,6.257-3.202c2.379,0,4.287,0.877,5.723,2.631C231.427,58.589,232.145,60.681,232.145,63.11z
				 M230.268,62.631c-0.05-1.84-0.614-3.416-1.693-4.729c-1.08-1.312-2.515-1.969-4.306-1.969c-1.841,0-3.331,0.645-4.472,1.933
				s-1.712,2.877-1.712,4.766H230.268z"/>
			<path fill="#009FE3" d="M250.752,73.083h-1.84V61.048c0-3.36-1.583-5.042-4.748-5.042c-2.11,0-3.656,0.755-4.637,2.264
				c-0.981,1.509-1.473,3.38-1.473,5.612v9.201h-1.84V54.682h1.619l0.221,3.349c0.516-1.152,1.355-2.079,2.521-2.778
				c1.165-0.699,2.397-1.049,3.698-1.049c2.086,0,3.687,0.602,4.803,1.803c1.116,1.203,1.675,2.847,1.675,4.932V73.083z"/>
			<path fill="#009FE3" d="M264.859,72.9c-1.375,0.294-2.393,0.441-3.055,0.441c-3.165,0-4.748-1.791-4.748-5.373V56.375h-3.682
				v-1.692h3.682v-5.08l1.84-0.441v5.521h5.705v1.692h-5.705v11.52c0,1.202,0.222,2.123,0.663,2.761s1.238,0.957,2.392,0.957
				c0.736,0,1.705-0.111,2.908-0.332V72.9z"/>
			<path fill="#009FE3" d="M281.723,67.968c0,1.301-0.417,2.429-1.251,3.386c-1.325,1.472-3.313,2.208-5.962,2.208
				c-2.626,0-4.638-0.785-6.036-2.355c-0.957-1.104-1.473-2.343-1.546-3.717h1.877c0.098,1.08,0.552,2.023,1.361,2.834
				c1.006,0.981,2.454,1.472,4.344,1.472c1.987,0,3.435-0.454,4.343-1.361c0.662-0.663,0.993-1.448,0.993-2.355
				c0-0.859-0.294-1.595-0.883-2.209c-0.589-0.612-1.424-0.993-2.503-1.141l-3.57-0.479c-1.913-0.221-3.3-0.834-4.158-1.84
				c-0.688-0.81-1.031-1.778-1.031-2.907c0-1.398,0.527-2.589,1.583-3.57c1.251-1.153,2.932-1.729,5.042-1.729
				c2.478,0,4.33,0.724,5.558,2.171c0.883,1.056,1.349,2.185,1.398,3.386h-1.84c-0.099-0.883-0.405-1.619-0.921-2.208
				c-0.907-1.079-2.307-1.619-4.195-1.619c-1.423,0-2.527,0.282-3.313,0.847c-0.957,0.688-1.435,1.533-1.435,2.539
				c0,0.835,0.263,1.516,0.791,2.043c0.527,0.527,1.453,0.877,2.778,1.049l3.496,0.479c1.644,0.221,2.901,0.815,3.772,1.785
				C281.287,65.643,281.723,66.742,281.723,67.968z"/>
		</g>
	</g>
	<g>
		<polygon fill="#312783" points="7.813,4.717 25.904,22.806 23.64,25.069 33.334,34.758 32.038,36.05 22.351,26.361 20.087,28.62 
			2,10.53 		"/>
		<polygon fill="#312783" points="2,68.488 20.087,50.401 22.351,52.662 32.038,42.971 33.334,44.261 23.64,53.952 25.904,56.214 
			7.813,74.302 		"/>
		<polygon fill="#312783" points="71.582,10.53 53.495,28.62 51.233,26.361 41.541,36.05 40.25,34.758 49.942,25.069 47.68,22.806 
			65.768,4.717 		"/>
		<polygon fill="#312783" points="65.768,74.302 47.68,56.214 49.942,53.952 40.25,44.261 41.541,42.971 51.233,52.662 
			53.495,50.401 71.582,68.488 		"/>
	</g>
</g>
</svg>
</g><text xml:space="preserve" x="1166" y="36">Date: 2024-09-16</text><text xml:space="preserve" x="1166" y="55">Time: 15:11:28</text></g></g></svg>